<?xml version="1.0" standalone="no"?><!DOCTYPE svg PUBLIC "-//W3C//DTD SVG 1.1//EN" "http://www.w3.org/Graphics/SVG/1.1/DTD/svg11.dtd"><svg t="1717759476890" class="icon" viewBox="0 0 1072 1024" version="1.1" xmlns="http://www.w3.org/2000/svg" p-id="1648" xmlns:xlink="http://www.w3.org/1999/xlink" width="209.375" height="200"><path d="M1000.540551 123.968105H603.172518A154.792607 154.792607 0 0 0 561.62645 42.216165 134.019573 134.019573 0 0 0 469.152945 0H134.104013a140.050454 140.050454 0 0 0-134.019573 144.741139v755.200293a129.328888 129.328888 0 0 0 134.019573 123.968105h804.117437a129.328888 129.328888 0 0 0 134.019573-123.968105V196.338674a67.009786 67.009786 0 0 0-71.700472-72.370569z m-67.009786 714.324323a67.009786 67.009786 0 0 1-67.009787 61.649004H201.113799a67.009786 67.009786 0 0 1-67.009786-61.649004V589.686121a67.009786 67.009786 0 0 1 67.009786-61.649004h670.097864a67.009786 67.009786 0 0 1 67.009787 61.649004zM134.104013 402.058719V217.781806a67.009786 67.009786 0 0 1 67.009786-72.370569h268.039146a147.42153 147.42153 0 0 0 32.164697 73.040667 127.318594 127.318594 0 0 0 89.793114 45.566655h278.090614a67.009786 67.009786 0 0 1 67.009786 72.370569V402.058719z" p-id="1649"></path></svg>