<?xml version="1.0" standalone="no"?><!DOCTYPE svg PUBLIC "-//W3C//DTD SVG 1.1//EN" "http://www.w3.org/Graphics/SVG/1.1/DTD/svg11.dtd"><svg t="1717758259303" class="icon" viewBox="0 0 1024 1024" version="1.1" xmlns="http://www.w3.org/2000/svg" p-id="1499" xmlns:xlink="http://www.w3.org/1999/xlink" width="200" height="200"><path d="M795.316618 92.548105L663.958017 16.718367a127.776093 127.776093 0 0 0-173.751603 47.16968L165.39242 625.147522v386.313702a12.538776 12.538776 0 0 0 18.509621 10.747522l333.770262-194.052478 324.21691-561.259475a128.970262 128.970262 0 0 0-46.572595-174.348688zM415.570845 769.044898l-5.970845 4.179592-119.41691 68.664723a12.538776 12.538776 0 0 1-19.106705-10.747522V684.855977l242.416326-417.959184 145.091546 83.591837z m324.813995-566.633236L702.768513 265.702624 557.676968 179.125364l32.242566-56.723032a51.349271 51.349271 0 0 1 70.455976-18.509621l64.485131 37.019242a42.990087 42.990087 0 0 1 15.524199 61.499709z" p-id="1500"></path></svg>