<?xml version="1.0" standalone="no"?><!DOCTYPE svg PUBLIC "-//W3C//DTD SVG 1.1//EN" "http://www.w3.org/Graphics/SVG/1.1/DTD/svg11.dtd"><svg t="1717759524065" class="icon" viewBox="0 0 1144 1024" version="1.1" xmlns="http://www.w3.org/2000/svg" p-id="1799" xmlns:xlink="http://www.w3.org/1999/xlink" width="223.4375" height="200"><path d="M1022.560258 180.325532H298.395821A120.217021 120.217021 0 0 0 178.178799 300.542553v602.516261a120.932599 120.932599 0 0 0 120.217022 120.932599h724.164437A120.932599 120.932599 0 0 0 1144.924012 903.058814V300.542553a120.932599 120.932599 0 0 0-122.363754-120.217021zM419.328419 300.542553h487.308283L649.744377 523.087158 403.585714 302.689286z m602.516262 482.29924a120.932599 120.932599 0 0 1-120.217022 120.217021H419.328419a120.932599 120.932599 0 0 1-120.217021-120.217021v-357.788754a110.198936 110.198936 0 0 1 8.58693-43.650228L572.462006 613.249924A120.932599 120.932599 0 0 0 651.175532 644.019757a123.079331 123.079331 0 0 0 80.860258-30.054256l278.35965-242.580775a116.639134 116.639134 0 0 1 11.449241 50.090426z" p-id="1800" fill="#2c2c2c"></path><path d="M1059.054711 129.519529A132.381839 132.381839 0 0 0 930.25076 0H132.381839A132.381839 132.381839 0 0 0 0 132.381839v661.193617a133.097416 133.097416 0 0 0 129.519529 132.381839V261.18579a132.381839 132.381839 0 0 1 132.381839-131.666261z" p-id="1801" fill="#2c2c2c"></path></svg>